<?xml version="1.0" encoding="UTF-8"?>
<svg xmlns="http://www.w3.org/2000/svg" xmlns:xlink="http://www.w3.org/1999/xlink" width="481pt" height="481pt" viewBox="0 0 481 481" version="1.1">
<g id="surface1">
<path style=" stroke:none;fill-rule:evenodd;fill:rgb(100%,100%,100%);fill-opacity:1;" d="M 0.078125 -0.0234375 L 45.167969 -0.0234375 L 45.167969 2.980469 L 3.085938 2.980469 L 3.085938 45.0625 L 0.078125 45.0625 Z M 435.921875 -0.0234375 L 481.007813 -0.0234375 L 481.007813 45.0625 L 478.003906 45.0625 L 478.003906 2.980469 L 435.921875 2.980469 Z M 481.007813 435.816406 L 481.007813 480.902344 L 435.921875 480.902344 L 435.921875 477.894531 L 478.003906 477.894531 L 478.003906 435.816406 Z M 45.164063 480.902344 L 0.078125 480.902344 L 0.078125 435.816406 L 3.085938 435.816406 L 3.085938 477.894531 L 45.164063 477.894531 Z M 45.164063 480.902344 "/>
<path style=" stroke:none;fill-rule:evenodd;fill:rgb(100%,100%,100%);fill-opacity:1;" d="M 0.078125 -0.0234375 L 45.167969 -0.0234375 L 45.167969 2.980469 L 3.085938 2.980469 L 3.085938 45.0625 L 0.078125 45.0625 Z M 435.921875 -0.0234375 L 481.007813 -0.0234375 L 481.007813 45.0625 L 478.003906 45.0625 L 478.003906 2.980469 L 435.921875 2.980469 Z M 481.007813 435.816406 L 481.007813 480.902344 L 435.921875 480.902344 L 435.921875 477.894531 L 478.003906 477.894531 L 478.003906 435.816406 Z M 45.164063 480.902344 L 0.078125 480.902344 L 0.078125 435.816406 L 3.085938 435.816406 L 3.085938 477.894531 L 45.164063 477.894531 Z M 45.164063 480.902344 "/>
<path style=" stroke:none;fill-rule:evenodd;fill:rgb(100%,100%,100%);fill-opacity:1;" d="M 0.078125 -0.0234375 L 45.167969 -0.0234375 L 45.167969 2.980469 L 3.085938 2.980469 L 3.085938 45.0625 L 0.078125 45.0625 Z M 435.921875 -0.0234375 L 481.007813 -0.0234375 L 481.007813 45.0625 L 478.003906 45.0625 L 478.003906 2.980469 L 435.921875 2.980469 Z M 481.007813 435.816406 L 481.007813 480.902344 L 435.921875 480.902344 L 435.921875 477.894531 L 478.003906 477.894531 L 478.003906 435.816406 Z M 45.164063 480.902344 L 0.078125 480.902344 L 0.078125 435.816406 L 3.085938 435.816406 L 3.085938 477.894531 L 45.164063 477.894531 Z M 45.164063 480.902344 "/>
<path style=" stroke:none;fill-rule:evenodd;fill:rgb(6.272888%,3.137207%,80.859375%);fill-opacity:1;" d="M 240.5625 53.640625 C 292.539063 53.640625 339.691406 75.015625 373.675781 109.421875 C 373.683594 109.472656 373.691406 109.519531 373.699219 109.570313 C 357.914063 106.664063 342.511719 105.273438 327.335938 105.257813 C 278.011719 105.207031 229.890625 118.835938 188.464844 145.417969 C 170.074219 157.222656 154.160156 171.101563 140.378906 188.027344 C 115.664063 218.382813 98.246094 254.847656 97.605469 294.378906 C 97.023438 330.230469 110.398438 362.601563 138.367188 385.316406 C 151.238281 395.769531 164.027344 403.9375 180.953125 409.519531 C 195.222656 414.226563 210.761719 416.121094 225.746094 415.480469 C 242.203125 414.777344 258.703125 410.945313 272.035156 400.089844 C 279.34375 394.140625 281.921875 386.042969 281.132813 377.792969 C 280.261719 368.679688 275.828125 361.75 267.574219 358.832031 C 256.824219 355.035156 240.980469 353.261719 233.445313 363.082031 C 230.828125 366.484375 231.097656 370.378906 233.660156 374.242188 C 234.214844 375.078125 235.101563 376.3125 235.347656 376.886719 C 233.019531 376.886719 230.574219 375.386719 229.554688 374.386719 C 218.890625 363.886719 230.714844 352.011719 240.183594 347.929688 C 270.585938 334.824219 330.753906 354.292969 311.019531 395.820313 C 302.195313 414.390625 279.523438 422.339844 257.324219 425.5 C 241.121094 427.800781 225.066406 427.808594 210.039063 425.570313 C 209.878906 425.546875 209.710938 425.542969 209.539063 425.550781 C 121.078125 410.695313 53.308594 333.460938 53.308594 240.890625 C 53.308594 137.757813 137.425781 53.640625 240.5625 53.640625 Z M 0.078125 -0.0234375 L 45.164063 -0.0234375 L 45.164063 2.980469 L 3.085938 2.980469 L 3.085938 45.0625 L 0.078125 45.0625 Z M 435.921875 -0.0234375 L 481.007813 -0.0234375 L 481.007813 45.0625 L 478.003906 45.0625 L 478.003906 2.980469 L 435.921875 2.980469 Z M 481.007813 435.816406 L 481.007813 480.902344 L 435.921875 480.902344 L 435.921875 477.894531 L 478.003906 477.894531 L 478.003906 435.816406 Z M 45.164063 480.902344 L 0.078125 480.902344 L 0.078125 435.816406 L 3.085938 435.816406 L 3.085938 477.894531 L 45.164063 477.894531 Z M 45.164063 480.902344 "/>
<path style=" stroke:none;fill-rule:evenodd;fill:rgb(6.272888%,41.967773%,100%);fill-opacity:1;" d="M 394.210938 134.089844 C 414.964844 163.839844 427.320313 199.84375 427.785156 238.628906 C 423.277344 233.945313 418.429688 229.898438 413.171875 226.828125 C 384.144531 209.867188 332.878906 208.773438 301.992188 214.246094 C 271.105469 219.722656 242.328125 226.109375 215.398438 244.59375 C 188.464844 263.074219 162.273438 296.113281 159.285156 329.996094 C 156.910156 356.917969 165.691406 374.308594 199.121094 392.628906 C 213.285156 400.390625 233.757813 400.308594 248.226563 393.359375 C 256.242188 389.503906 263.070313 377.570313 258.476563 369.953125 C 254.335938 363.085938 240.289063 360.761719 236.183594 371.714844 C 233.535156 368.261719 237.996094 361.34375 241.734375 360.179688 C 249.050781 357.898438 257.347656 357.484375 263.894531 361.464844 C 271.320313 365.976563 278.164063 374.78125 276.546875 383.316406 C 274.597656 393.605469 265.359375 399.992188 255.949219 404.585938 C 243.902344 410.464844 229.539063 412.253906 216.136719 411.902344 C 200.644531 411.496094 184.546875 407.527344 170.988281 400.019531 C 153.851563 390.53125 137.15625 378.019531 126.578125 361.53125 C 115.585938 344.386719 108.742188 323.429688 108.820313 303.0625 C 108.976563 260.992188 127.628906 227.96875 154.703125 197.222656 C 174.335938 174.9375 193.945313 160.363281 224.277344 145.414063 C 254.609375 130.464844 300.351563 116.988281 338.257813 116.988281 C 352.289063 116.988281 366.523438 119.574219 379.703125 124.390625 C 382.550781 125.429688 387.886719 128.863281 394.210938 134.089844 Z M 0.078125 -0.0234375 L 45.164063 -0.0234375 L 45.164063 2.980469 L 3.085938 2.980469 L 3.085938 45.0625 L 0.078125 45.0625 Z M 435.921875 -0.0234375 L 481.007813 -0.0234375 L 481.007813 45.0625 L 478.003906 45.0625 L 478.003906 2.980469 L 435.921875 2.980469 Z M 481.007813 435.816406 L 481.007813 480.902344 L 435.921875 480.902344 L 435.921875 477.894531 L 478.003906 477.894531 L 478.003906 435.816406 Z M 45.164063 480.902344 L 0.078125 480.902344 L 0.078125 435.816406 L 3.085938 435.816406 L 3.085938 477.894531 L 45.164063 477.894531 Z M 45.164063 480.902344 "/>
<path style=" stroke:none;fill-rule:evenodd;fill:rgb(9.812927%,80.859375%,100%);fill-opacity:1;" d="M 180.238281 374.339844 C 162.570313 353.765625 165.824219 335.78125 174.460938 313.25 C 187.933594 278.109375 220.671875 258.460938 254.398438 244.785156 C 262.171875 241.632813 284.382813 235.277344 303.246094 231.914063 C 324.945313 228.046875 345.003906 229.628906 366.574219 232.761719 C 381.148438 234.878906 408.269531 246.535156 419.347656 256.089844 C 426.621094 262.359375 424.910156 274.796875 423.019531 282.980469 C 416.574219 310.855469 403.871094 336.382813 386.484375 357.996094 C 391.492188 327.058594 377.835938 316.941406 352.78125 306.292969 C 338.089844 300.046875 313.007813 296.121094 296.011719 295.617188 C 270.300781 294.855469 235.335938 305.179688 221.492188 319.738281 C 211.78125 329.949219 205.984375 336.628906 204.21875 350.480469 C 202.761719 361.925781 206.523438 371.910156 216.664063 379.066406 C 221.429688 382.421875 226.632813 382.460938 232.003906 384.464844 C 234.972656 385.574219 243.664063 383.308594 246.765625 380.9375 C 252.488281 376.550781 250.613281 369.367188 245.683594 367.257813 C 245.453125 365.421875 250.53125 366.816406 251.738281 367.90625 C 262.894531 377.984375 254.355469 385.535156 245.65625 389.726563 C 236.261719 394.261719 224.96875 394.808594 214.8125 393.152344 C 196.597656 390.1875 187.320313 382.59375 180.238281 374.339844 Z M 0.078125 -0.0234375 L 45.164063 -0.0234375 L 45.164063 2.980469 L 3.085938 2.980469 L 3.085938 45.0625 L 0.078125 45.0625 Z M 435.921875 -0.0234375 L 481.007813 -0.0234375 L 481.007813 45.0625 L 478.003906 45.0625 L 478.003906 2.980469 L 435.921875 2.980469 Z M 481.007813 435.816406 L 481.007813 480.902344 L 435.921875 480.902344 L 435.921875 477.894531 L 478.003906 477.894531 L 478.003906 435.816406 Z M 45.164063 480.902344 L 0.078125 480.902344 L 0.078125 435.816406 L 3.085938 435.816406 L 3.085938 477.894531 L 45.164063 477.894531 Z M 45.164063 480.902344 "/>
</g>
</svg>
