<?xml version="1.0" encoding="utf-8"?>
<!-- Generator: Adobe Illustrator 19.0.0, SVG Export Plug-In . SVG Version: 6.00 Build 0)  -->
<svg version="1.1" id="Layer_1" xmlns="http://www.w3.org/2000/svg" xmlns:xlink="http://www.w3.org/1999/xlink" x="0px" y="0px"
	 viewBox="-264.5 328 398.1 90" style="enable-background:new -264.5 328 398.1 90;" xml:space="preserve">
<style type="text/css">
	.st0{fill:#1BA0E2;}
	.st1{fill:#0D7FCC;}
	.st2{fill:#434343;}
</style>
<g id="Train_Booking">
	<g id="Train_Booking-Form_Login-Success" transform="translate(-174.000000, -10.000000)">
		<g id="Logo-_x2F_-Normal-Text-Copy-2" transform="translate(174.000000, 10.000000)">
			<g id="Icon-Blue-Copy" transform="translate(106.348506, 0.000000)">
				<path id="Path-7" class="st0" d="M-8.1,350c15.7-10,35.4-11.9,35.4-11.9s-20.9,23.7-26,34.7c-1.6,4.8,1.7,8.7,1.7,8.7
					S-6.1,371.3-8.1,350z"/>
				<path id="Path-7-Copy" class="st1" d="M-1.3,346.3c-2.3,1.1-4.6,2.3-6.8,3.7c1,10.8,3.8,18.8,6.4,24c1.4,2.4,2.7,4.5,3.7,5.9
					c-0.5-1-1-2.3-1.1-3.9C-0.4,370.9-1.7,361.9-1.3,346.3z"/>
				<path id="Path-6" class="st0" d="M-22.1,359.3c0,0-1-3.6-1.4-4.7c-1-2.8-1.9-5.7-1.9-10.6c0-6.7,11.4-13.9,18.4-16.1
					c-1.9,24.4,0.9,31.9,3.4,40c6,19.9,19.6,22.8,21,24.2c-3.5-0.8-1.5,0.9-1.5,0.9s-5.6-3.9-16.7-7c-11.2-3.2-19.9-3.6-25.2-6.7
					c-4.1-3.1-4.2-5.6-6.2-7.3c-6.4-5.5-22.6-7.9-22.6-7.9l13.9,2.3c0,0,1.9,0,4.2-0.8c0.5-0.1,2-1.8,5.4-0.7c1.4,0.5,1,0.9,4.9,2.1
					C-21.6,368.3-22.1,359.3-22.1,359.3z"/>
			</g>
			<path id="traveloka" class="st2" d="M-258.9,401.4c0,14.3,10.9,15.9,16.3,15.9c1.7,0,2.9-0.2,2.9-0.2v-7.3c0,0-0.8,0.2-1.9,0.2
				c-3.1,0-9.1-1.1-9.1-9.6v-19h10.3v-6.6h-10.3v-12.3h-7.9v12.3h-5.8v6.6h5.6V401.4z M-232.2,417h8.2v-17.5c0-2.6,0.3-5.2,1-7.7
				c1.9-6.3,6.7-10,12-10c1.3,0,2.4,0.3,2.4,0.3V374c0,0-1-0.2-2.1-0.2c-6.6,0-11.5,4.9-13.5,11.1h-0.2c0,0,0.2-1.4,0.2-3.2v-7.4
				h-7.9V417z M-205.9,405c0,8.5,7.2,13,14.5,13c10.2,0,13.7-8.4,13.7-8.4h0.2c0,0-0.2,1.4-0.2,3.4v4.1h7.6v-27
				c0-10.8-6.1-16.7-16.9-16.7c-9.8,0-15.9,5.1-15.9,5.1l3.4,6c0,0,5.3-4.1,11.9-4.1c5.4,0,9.4,2.4,9.4,9.4v0.8h-1.9
				C-187.4,390.3-205.9,390.9-205.9,405L-205.9,405z M-197.7,404.6c0-7.7,11.1-8.1,17.3-8.1h2.1v1.4c0,6.3-4.5,13.6-11.4,13.6
				C-195,411.4-197.7,408-197.7,404.6L-197.7,404.6z M-149.5,417h9.4l15.8-42.7h-8.6l-10.4,28.9c-0.8,2.4-1.4,5.8-1.5,5.8h-0.2
				c-0.1,0-0.6-3.5-1.4-5.8l-10.4-28.9h-8.7L-149.5,417z M-122.2,395.6c0,12.7,9.2,22.4,22.6,22.4c10.2,0,16.5-6.1,16.5-6.1l-3.4-6
				c0,0-5.3,5-12.6,5c-7.6,0-14.2-4.7-14.7-14.1h31.1c0,0,0.3-2.4,0.3-3.5c0-11.1-6.4-20-18.5-20
				C-113,373.3-122.2,382.1-122.2,395.6L-122.2,395.6z M-113.5,390.7c1.2-7,6.2-10.9,12.5-10.9c5.5,0,10,3.5,10.3,10.9H-113.5z
				 M-74.9,405.3c0,10.7,6.8,12,11.5,12c1.4,0,2.7-0.2,2.7-0.2v-7.3c0,0-0.7,0.1-1.4,0.1c-2.5,0-4.6-0.9-4.6-6.1v-46.5h-8.2V405.3z
				 M-57,395.6c0,13,10.3,22.4,23,22.4c12.7,0,23-9.5,23-22.4c0-12.9-10.3-22.3-23-22.3C-46.7,373.3-57,382.6-57,395.6L-57,395.6z
				 M-48.7,395.6c0-8.9,6.7-15.2,14.7-15.2c8.1,0,14.7,6.3,14.7,15.2c0,8.9-6.6,15.4-14.7,15.4C-42,410.9-48.7,404.5-48.7,395.6
				L-48.7,395.6z M-3,417h8.2v-20.1h6.2L24.2,417h9.5l-15.8-23.7v-0.2l14.2-18.8h-9.3L11.2,390h-6v-32.6H-3V417z M36,405
				c0,8.5,7.2,13,14.5,13c10.2,0,13.7-8.4,13.7-8.4h0.2c0,0-0.2,1.4-0.2,3.4v4.1h7.6v-27c0-10.8-6.1-16.7-16.9-16.7
				c-9.8,0-15.9,5.1-15.9,5.1l3.4,6c0,0,5.3-4.1,11.9-4.1c5.4,0,9.4,2.4,9.4,9.4v0.8h-1.9C54.5,390.3,36,390.9,36,405L36,405z
				 M44.3,404.6c0-7.7,11.1-8.1,17.3-8.1h2.1v1.4c0,6.3-4.5,13.6-11.4,13.6C47,411.4,44.3,408,44.3,404.6L44.3,404.6z"/>
		</g>
	</g>
</g>
</svg>
